<!--?xml version="1.0" encoding="UTF-8"?-->
<svg width="100%" height="118px" viewBox="0 0 879 118" version="1.1" xmlns="http://www.w3.org/2000/svg" xmlns:xlink="http://www.w3.org/1999/xlink">
    <!-- Generator: Sketch 43.1 (39012) - http://www.bohemiancoding.com/sketch -->
    <title>after</title>
    <desc>Created with Sketch.</desc>
    <defs>
    <style xmlns="http://www.w3.org/2000/svg" type="text/css">
      @import url('/fonts/horta-webfont-bfd8d12c.woff2');
      text {
        font-family: "Horta";
      }
    </style>
    </defs>
    <g id="-" stroke="none" stroke-width="1" fill="none" fill-rule="evenodd">
        <g id="About" transform="translate(-62.000000, -1203.000000)">
            <g id="after" transform="translate(62.000000, 1203.000000)">
                <path d="M100,22.8670474 L128.662115,22.8670474 L125.78451,13.8260438 C125.677481,13.4897313 125.8709,13.1326758 126.216554,13.0285272 C126.398141,12.9738201 126.595215,12.9985409 126.756596,13.0962894 L146.690977,27.6173513 C146.998159,27.8034011 147.092176,28.1965115 146.900945,28.4954049 C146.873834,28.5377834 146.841692,28.5769236 146.805186,28.6120095 L129.092403,43.1903857 C128.835001,43.4378104 128.420174,43.4353626 128.165877,43.1849035 C128.015752,43.0370632 127.949134,42.827287 127.98737,42.6228146 L129.523281,34.4076181 C129.522679,34.4078859 100,34.4076181 100,34.4076181 L100,22.8670474 Z" id="Arrow-33-shape-Copy-5" fill="#5a2d29"></path>
                <path d="M257,22.8670474 L285.662115,22.8670474 L282.78451,13.8260438 C282.677481,13.4897313 282.8709,13.1326758 283.216554,13.0285272 C283.398141,12.9738201 283.595215,12.9985409 283.756596,13.0962894 L303.690977,27.6173513 C303.998159,27.8034011 304.092176,28.1965115 303.900945,28.4954049 C303.873834,28.5377834 303.841692,28.5769236 303.805186,28.6120095 L286.092403,43.1903857 C285.835001,43.4378104 285.420174,43.4353626 285.165877,43.1849035 C285.015752,43.0370632 284.949134,42.827287 284.98737,42.6228146 L286.523281,34.4076181 C286.522679,34.4078859 257,34.4076181 257,34.4076181 L257,22.8670474 Z" id="Arrow-33-shape-Copy-11" fill="#5a2d29"></path>
                <path d="M414,22.8670474 L442.662115,22.8670474 L439.78451,13.8260438 C439.677481,13.4897313 439.8709,13.1326758 440.216554,13.0285272 C440.398141,12.9738201 440.595215,12.9985409 440.756596,13.0962894 L460.690977,27.6173513 C460.998159,27.8034011 461.092176,28.1965115 460.900945,28.4954049 C460.873834,28.5377834 460.841692,28.5769236 460.805186,28.6120095 L443.092403,43.1903857 C442.835001,43.4378104 442.420174,43.4353626 442.165877,43.1849035 C442.015752,43.0370632 441.949134,42.827287 441.98737,42.6228146 L443.523281,34.4076181 C443.522679,34.4078859 414,34.4076181 414,34.4076181 L414,22.8670474 Z" id="Arrow-33-shape-Copy-12" fill="#5a2d29"></path>
                <path d="M732,22.8670474 L760.662115,22.8670474 L757.78451,13.8260438 C757.677481,13.4897313 757.8709,13.1326758 758.216554,13.0285272 C758.398141,12.9738201 758.595215,12.9985409 758.756596,13.0962894 L778.690977,27.6173513 C778.998159,27.8034011 779.092176,28.1965115 778.900945,28.4954049 C778.873834,28.5377834 778.841692,28.5769236 778.805186,28.6120095 L761.092403,43.1903857 C760.835001,43.4378104 760.420174,43.4353626 760.165877,43.1849035 C760.015752,43.0370632 759.949134,42.827287 759.98737,42.6228146 L761.523281,34.4076181 C761.522679,34.4078859 732,34.4076181 732,34.4076181 L732,22.8670474 Z" id="Arrow-33-shape-Copy-14" fill="#5a2d29"></path>
                <path d="M103,96.8670474 L151.662115,96.8670474 L148.78451,87.8260438 C148.677481,87.4897313 148.8709,87.1326758 149.216554,87.0285272 C149.398141,86.9738201 149.595215,86.9985409 149.756596,87.0962894 L169.690977,101.617351 C169.998159,101.803401 170.092176,102.196511 169.900945,102.495405 C169.873834,102.537783 169.841692,102.576924 169.805186,102.61201 L152.092403,117.190386 C151.835001,117.43781 151.420174,117.435363 151.165877,117.184904 C151.015752,117.037063 150.949134,116.827287 150.98737,116.622815 L152.523281,108.407618 C152.522679,108.407886 103,108.407618 103,108.407618 L103,96.8670474 Z" id="Arrow-33-shape-Copy-8" fill="#5a2d29" transform="translate(136.500000, 102.187181) scale(-1, 1) translate(-136.500000, -102.187181) "></path>
                 <g id="" transform="translate(0.000000, 1.000000)">
                    <g id="Small-Button">
                        <rect id="Background" stroke="#000000" stroke-width="2" x="1" y="1" width="88" height="53" rx="8"></rect>
                        <text id="Text" font-family="Horta, AvantGardeGothicITCW01Dm, Avant Garde Gothic ITCW01Dm" font-size="12" font-weight="normal" fill="#000000">
                            <tspan x="28" y="26">PUSH</tspan>
                            <tspan x="28" y="46">CODE</tspan>
                        </text>
                    </g>
                </g>
                <g id="" transform="translate(157.000000, 1.000000)">
                    <g id="Small-Button">
                        <rect id="Background" stroke="#000000" stroke-width="2" x="1" y="1" width="88" height="53" rx="8"></rect>
                        <text id="Text" font-family="Horta, AvantGardeGothicITCW01Dm, Avant Garde Gothic ITCW01Dm" font-size="12" font-weight="normal" fill="#000000">
                            <tspan x="32" y="34">LINT</tspan>
                        </text>
                    </g>
                </g>
                <g id="" transform="translate(314.000000, 0.000000)">
                    <g id="Small-Button">
                        <rect id="Background" stroke="#000000" stroke-width="2" x="1" y="1" width="88" height="53" rx="8"></rect>
                        <text id="Text" font-family="Horta, AvantGardeGothicITCW01Dm, Avant Garde Gothic ITCW01Dm" font-size="12" font-weight="normal" fill="#000000">
                            <tspan x="27" y="34">TESTS</tspan>
                        </text>
                    </g>
                </g>
                <g id="" transform="translate(471.000000, 0.000000)">
                    <g id="Small-Button">
                        <rect id="Background" stroke="#000000" stroke-width="2" x="1" y="1" width="88" height="53" rx="8"></rect>
                        <text id="Text" font-family="Horta, AvantGardeGothicITCW01Dm, Avant Garde Gothic ITCW01Dm" font-size="12" font-weight="normal" fill="#000000">
                            <tspan x="22" y="34">DANGER</tspan>
                        </text>
                    </g>
                </g>
                <g id="" transform="translate(789.000000, 0.000000)">
                    <g id="Small-Button">
                        <rect id="Background" stroke="#000000" stroke-width="2" x="1" y="1" width="88" height="53" rx="8"></rect>
                        <text id="Text" font-family="Horta, AvantGardeGothicITCW01Dm, Avant Garde Gothic ITCW01Dm" font-size="12" font-weight="normal" fill="#000000">
                            <tspan x="24" y="24">HUMAN</tspan>
                            <tspan x="21.5" y="42">REVIEWS</tspan>
                        </text>
                    </g>
                </g>
                <path d="M762.973102,91.4462339 C775.188326,100.603308 794.994538,96.8620004 794.994538,96.8620004 C794.994538,96.8620004 817.110611,100.394892 816.881134,100.761277 C816.848601,100.813225 808.318765,106.250548 808.318765,106.250548 C808.318042,106.250876 773.440552,113.158013 759.603141,101.12213 C745.74727,89.0958906 745.000079,67.9993592 745,68 C745.000079,67.9997343 750.779467,82.2767664 762.973102,91.4462339 Z" id="Arrow-33-shape-Copy-10" fill="#5a2d29" transform="translate(780.941454, 88.111696) scale(-1, 1) translate(-780.941454, -88.111696) "></path>
                <path d="M450.973102,91.4462339 C463.188326,100.603308 482.994538,96.8620004 482.994538,96.8620004 C482.994538,96.8620004 505.110611,100.394892 504.881134,100.761277 C504.848601,100.813225 496.318765,106.250548 496.318765,106.250548 C496.318042,106.250876 461.440552,113.158013 447.603141,101.12213 C433.74727,89.0958906 433.000079,67.9993592 433,68 C433.000079,67.9997343 438.779467,82.2767664 450.973102,91.4462339 Z" id="Arrow-33-shape-Copy-15" fill="#5a2d29" transform="translate(468.941454, 88.111696) scale(-1, 1) translate(-468.941454, -88.111696) "></path>
                <path d="M298.973102,91.4462339 C311.188326,100.603308 330.994538,96.8620004 330.994538,96.8620004 C330.994538,96.8620004 353.110611,100.394892 352.881134,100.761277 C352.848601,100.813225 344.318765,106.250548 344.318765,106.250548 C344.318042,106.250876 309.440552,113.158013 295.603141,101.12213 C281.74727,89.0958906 281.000079,67.9993592 281,68 C281.000079,67.9997343 286.779467,82.2767664 298.973102,91.4462339 Z" id="Arrow-33-shape-Copy-17" fill="#5a2d29" transform="translate(316.941454, 88.111696) scale(-1, 1) translate(-316.941454, -88.111696) "></path>
                <path d="M147.973102,91.4462339 C160.188326,100.603308 179.994538,96.8620004 179.994538,96.8620004 C179.994538,96.8620004 202.110611,100.394892 201.881134,100.761277 C201.848601,100.813225 193.318765,106.250548 193.318765,106.250548 C193.318042,106.250876 158.440552,113.158013 144.603141,101.12213 C130.74727,89.0958906 130.000079,67.9993592 130,68 C130.000079,67.9997343 135.779467,82.2767664 147.973102,91.4462339 Z" id="Arrow-33-shape-Copy-18" fill="#5a2d29" transform="translate(165.941454, 88.111696) scale(-1, 1) translate(-165.941454, -88.111696) "></path>
                <rect id="Rectangle-Copy" fill="#5a2d29" x="168" y="97" width="615" height="11.5"></rect>
                <polygon id="Triangle-Copy-2" fill="#5a2d29" points="705 19 722 53 688 53"></polygon>
                <polygon id="Triangle-Copy-3" fill="#5a2d29" points="705 34 688 0 722 0"></polygon>
                <path d="M573,21.8670474 L601.662115,21.8670474 L598.78451,12.8260438 C598.677481,12.4897313 598.8709,12.1326758 599.216554,12.0285272 C599.398141,11.9738201 599.595215,11.9985409 599.756596,12.0962894 L619.690977,26.6173513 C619.998159,26.8034011 620.092176,27.1965115 619.900945,27.4954049 C619.873834,27.5377834 619.841692,27.5769236 619.805186,27.6120095 L602.092403,42.1903857 C601.835001,42.4378104 601.420174,42.4353626 601.165877,42.1849035 C601.015752,42.0370632 600.949134,41.827287 600.98737,41.6228146 L602.523281,33.4076181 C602.522679,33.4078859 573,33.4076181 573,33.4076181 L573,21.8670474 Z" id="Arrow-33-shape-Copy-13" fill="#5a2d29"></path>
                <g id="Group-3" transform="translate(632.000000, 15.000000)">
                    <ellipse id="Oval-Copy-2" fill="#FA1C7E" cx="12" cy="12" rx="12" ry="12"></ellipse>
                    <path d="M3.62974094,20.5987747 C1.39067335,18.418845 0,15.3718271 0,12 C0,5.372583 5.372583,0 12,0 C15.3718271,0 18.418845,1.39067335 20.5987747,3.62974094 L3.62974094,20.5987747 Z" id="Combined-Shape" fill="#87CA85"></path>
                </g>
            </g>
        </g>
    </g>
</svg>
